<svg width="104" height="118" viewBox="0 0 104 118" fill="none" xmlns="http://www.w3.org/2000/svg"><g clip-path="url(#clip0_576_5652)"><path d="M73.565 77.826c.005-.005.006-.01.01-.016.022-.09.927-3.496 1.864-7.975-.951 4.544-1.874 7.99-1.874 7.99zm-40.979 2.333c.264.7.376 1.057.397 1.118l.017.021c-.034-.1-.16-.47-.414-1.14zm-5.577-8.969c.018.04.033.08.052.12-.096-.222-.188-.447-.283-.673.078.184.15.37.23.552zm-.547-1.318c-.133-.331-.26-.665-.388-1 .129.335.255.67.387 1zm1.484 3.353c.073.145.142.29.215.434a.448.448 0 00.029.058c-.115-.234-.232-.466-.345-.702.034.07.069.14.101.21zm-.778-1.675c.157.358.316.712.482 1.062.01.017.016.037.027.055-.193-.41-.382-.824-.568-1.244.02.042.038.085.059.127zm53.239-39.588c.026.11.049.22.073.331-.025-.11-.047-.221-.073-.33z" fill="#5EB3E4"/><path d="M82.944 52.443a69.61 69.61 0 00.262-6.033c0-15.555-5.133-29.323-13.007-37.745l2.489-4.223 3.17-1.23s.476-.861.378-1.427l-9.384 3.76C62.458 2.009 57.432 0 52.09 0c-7.816 0-14.955 4.297-20.42 11.395-2.266 2.923-4.246 6.326-5.87 10.1l-9.81 3.816c.095.716.643.936.643.936l2.785-1.048c.718 1.481 2.192 4.345 3.16 6.244-1.088 4.726-1.68 9.794-1.68 15.068 0 2.12.096 4.206.283 6.25l-3.344-.24 4.312 7.055c3.786 19.27 15.722 33.345 29.865 33.345 5.244 0 10.18-1.938 14.517-5.355.04-.031.081-.062.12-.095a18.6 18.6 0 00.332-.268c.168-.135.335-.276.499-.415l.023-.02c6.328-5.4 11.263-14.016 13.802-24.355.017-.076.033-.151.052-.228.056-.235.116-.47.17-.708.038-.163.071-.33.11-.495.028-.138.06-.274.089-.412.048-.221.096-.444.142-.667l.031-.158c.05-.27.106-.541.157-.814l3.417-6.47-2.531-.018zM70.703 5.214c-3.75 5.262-22.86 35.506-7.628 57.86C47 42.015 60.62 12.783 63.835 7.9l6.868-2.687zm-17.18 58.074c7.307 3.965 12.262 3.981 12.175 3.981-3.94 0-7.155 2.923-7.565 6.743a7.613 7.613 0 00-4.61-2.422s.043-6.61 0-8.302zm8.648.52c-15.987-18.763-17.13-39.997-14.79-49.514l7.258-2.82c-3.593 9.534-6.326 34.78 7.532 52.334zm-.327.905C51.787 57.963 35.026 36.37 32.86 19.94l6.509-2.529c.611 18.917 10.468 35.517 22.475 47.302zM27.367 20.826c.193-.425.392-.845.592-1.261C32.894 9.788 40.587 2.78 49.152 1.464a15.7 15.7 0 01.516-.07l.114-.013a20.092 20.092 0 014.455-.01c.128.014.256.028.386.045l.15.02c2.875.418 5.702 1.48 8.301 2.997.05.03.105.058.158.089.077.047.15.1.227.147.217.136.43.275.644.417a30.474 30.474 0 01.791.554c.197.141.394.278.59.426L52.98 10.831l-.003-.04-.33-4.186c.31-.11.704-.158 1.14-.16.745 0 1.62.142 2.463.387.047.013.096.024.142.039-.501-.782-1.315-.948-2.773-.941a34.9 34.9 0 00-1.05.027v-.004c0-.042-.037-1.445-.155-2.247-.036.007-.074.012-.112.02-.781.146-1.6.19-2.426.184-1.563-.012-3.155-.196-4.588-.18-1.959.022-3.619.422-4.495 2.16-.808 1.515-.157 2.66.914 3.157a4.61 4.61 0 001.319.197c2.513.011 5.068-1.852 8.243-2.434l.115-.021-.034 4.768c-7.229 2.929-23.293 9.05-24.008 9.321a.44.44 0 01.024-.052zM51.382 6.223a.197.197 0 00-.023.005c-3.025.555-5.651 2.304-7.567 2.241-.743-.024-1.383-.318-1.893-1.064-.248-.803.061-2.044 3.175-2.073 1.43-.014 3.451.228 6.285.885a.145.145 0 01.023.006zM20.632 24.69l5.052-1.971c3.9 15.768 18.802 31.926 35.48 42.605C36.78 55.346 27.671 38.42 20.633 24.69zm1.584 25.564a85.095 85.095 0 01-.078-3.793c0-4.776.451-8.978 1.361-13.299 6.617 11.556 15.454 22.115 27.883 29.019l-.003 9.422a7.608 7.608 0 00-4.416 2.312 7.635 7.635 0 00-7.578-6.646 7.624 7.624 0 00-4.981 1.842c-1.377-1.601-4.286-7.399-3.074-15.675l-8.922-.655a64.066 64.066 0 01-.192-2.527zm10.766 31.022c-1.56-1.951-2.983-4.139-4.255-6.52l-.05-.103c-.166-.309-.33-.62-.488-.936a.372.372 0 01-.027-.059c-.073-.143-.143-.287-.215-.433l-.103-.21a22.472 22.472 0 01-.168-.35c-.01-.017-.015-.036-.026-.053a53.8 53.8 0 01-.541-1.188c-.014-.038-.033-.076-.048-.114-.019-.039-.034-.08-.052-.12-.079-.184-.154-.37-.23-.552-.106-.255-.216-.508-.317-.767a54.21 54.21 0 01-.388-1c-.05-.134-.103-.268-.155-.404a59.451 59.451 0 01-2.593-9.349l4.92-2.44v.004l-.004.643c-.326 7.996.82 15.481 4.173 22.388.063.164.119.308.17.446.255.67.38 1.04.415 1.14l-.018-.023zm6.429.019c-3.55 0-6.428-2.87-6.428-6.411 0-3.536 2.87-6.402 6.418-6.41 3.549 0 6.426 2.871 6.426 6.41 0 3.537-2.872 6.404-6.416 6.41zm13.165 4.24c-3.55 0-6.426-2.87-6.426-6.41 0-3.536 2.87-6.404 6.415-6.41 3.549 0 6.428 2.87 6.428 6.41 0 3.537-2.872 6.403-6.417 6.41zm13.141-4.316c-3.55 0-6.43-2.87-6.43-6.41 0-3.538 2.874-6.404 6.416-6.411 3.55 0 6.43 2.87 6.43 6.41 0 3.536-2.872 6.404-6.416 6.41zm15.044-21.875c-.051.26-.102.517-.154.772-.05.245-.105.485-.157.727-.068.307-.14.615-.21.922-.057.23-.109.459-.168.687-.07.289-.15.575-.224.861a62.068 62.068 0 01-.671 2.347c-.079.255-.157.512-.241.764l-.04.123c-1.096 3.304-2.462 6.37-4.054 9.162-.025.049-.055.094-.08.143a44.741 44.741 0 01-1.186 1.958l-.01.016s.922-3.447 1.874-7.991c.838-3.987 1.698-8.821 1.985-12.917l.972.463 2.516 1.201c-.046.256-.102.508-.152.762zm.98-6.944h-.002l-.468-.02-7.139-.304c.811 3.382-.26 11.62-2.708 14.823-16.752-7.093-16.776-32.358-2.013-57.224.092.097.179.196.27.293.146.158.295.315.437.475.24.273.475.552.705.835 4.373 5.335 7.737 12.486 9.585 20.684l.071.33c.044.206.091.41.133.616a66.602 66.602 0 011.381 13.603 68.31 68.31 0 01-.252 5.89z" fill="#131747"/><path d="M32.415 79.714c-3.354-6.908-4.499-14.393-4.173-22.388l.004-.644-4.913 2.435a59.525 59.525 0 002.585 9.35c.053.136.105.27.155.405.128.335.256.67.389 1 .102.258.211.51.317.766.095.224.187.451.283.672l.047.114c.186.418.375.833.567 1.242.056.116.111.234.168.348.114.237.23.47.346.704.158.314.32.626.486.935.016.034.035.068.05.103 1.274 2.382 2.697 4.569 4.256 6.52-.02-.06-.132-.416-.396-1.117a43.374 43.374 0 00-.17-.445z" fill="#63B8E8"/><path d="M23.5 33.162c-.911 4.32-1.362 8.524-1.362 13.299 0 1.29.023 2.546.078 3.793.049.849.111 1.691.191 2.527l8.922.655c-1.21 8.276 1.697 14.074 3.075 15.675a7.619 7.619 0 014.98-1.842 7.634 7.634 0 017.578 6.646 7.613 7.613 0 014.418-2.312l.003-9.422C38.953 55.277 30.116 44.718 23.5 33.162zM41.9 7.405c.51.746 1.15 1.04 1.891 1.066 1.917.06 4.544-1.687 7.567-2.243a.301.301 0 01.025-.005l-.025-.006c-2.834-.657-4.855-.898-6.283-.886-3.114.03-3.425 1.271-3.175 2.074z" fill="#63B8E8"/><path d="M64.894 5.639a27.878 27.878 0 00-.79-.554c-.216-.141-.429-.28-.645-.415-.076-.049-.15-.102-.227-.149-.054-.031-.11-.058-.158-.09-2.6-1.515-5.427-2.578-8.3-2.994a3.27 3.27 0 00-.151-.02c-.13-.019-.258-.031-.386-.047a20.328 20.328 0 00-2.175-.119c-.767 0-1.53.045-2.28.13l-.113.013c-.175.02-.347.045-.517.07-8.565 1.317-16.258 8.325-21.192 18.1a59.833 59.833 0 00-.616 1.314c.713-.271 16.778-6.392 24.006-9.321l.035-4.77-.116.023c-3.173.583-5.73 2.446-8.241 2.434a4.57 4.57 0 01-1.32-.197c-1.071-.498-1.721-1.642-.914-3.158.877-1.738 2.536-2.138 4.496-2.16 1.431-.015 3.023.17 4.586.18.826.006 1.645-.037 2.426-.185l.112-.018c.118.802.156 2.206.156 2.246v.004a29.53 29.53 0 011.05-.025c1.458-.008 2.273.158 2.774.94-.046-.016-.096-.026-.144-.04-.843-.244-1.717-.387-2.463-.385-.434.002-.828.049-1.14.158l.33 4.186.003.042 12.504-4.766c-.196-.149-.393-.285-.59-.427zm12.531 51.279c-.287 4.096-1.148 8.93-1.986 12.917a166.2 166.2 0 01-1.874 7.991c.005-.005.006-.01.01-.016a42.996 42.996 0 001.186-1.958c.027-.048.056-.094.081-.143.259-.452.51-.914.753-1.381l.031-.057a51.556 51.556 0 003.27-7.724l.04-.123c.084-.252.162-.509.241-.764.24-.77.46-1.555.67-2.346.077-.288.154-.574.224-.862.06-.228.111-.457.168-.687.072-.306.143-.614.21-.922.053-.242.108-.482.158-.727.053-.255.103-.513.155-.772.05-.254.104-.506.15-.763l-2.514-1.2-.972-.463zM53.523 71.59a7.605 7.605 0 014.608 2.423c.411-3.82 3.627-6.744 7.567-6.744.087 0-4.87-.015-12.175-3.982.042 1.694 0 8.303 0 8.303z" fill="#63B8E8"/><path d="M80.612 32.908c-.043-.205-.09-.411-.133-.615a24.37 24.37 0 00-.071-.331c-1.849-8.198-5.212-15.348-9.585-20.684a31.39 31.39 0 00-.705-.835c-.144-.16-.291-.317-.436-.475-.092-.096-.179-.196-.271-.293-14.763 24.866-14.739 50.13 2.013 57.224 2.447-3.202 3.52-11.44 2.708-14.823l7.14.304.466.02h.003c.167-1.928.252-3.893.252-5.889 0-4.739-.483-9.306-1.381-13.603z" fill="#63B8E8"/><path d="M54.64 11.474l-7.258 2.82c-2.342 9.517-1.197 30.75 14.789 49.514-13.859-17.553-11.124-42.8-7.53-52.334z" fill="#fff"/><path d="M61.844 64.713c-12.006-11.785-21.862-28.385-22.476-47.3l-6.507 2.527c2.165 16.43 18.926 38.022 28.983 44.773z" fill="#fff"/><path d="M70.701 5.214L63.834 7.9c-3.213 4.882-16.834 34.115-.76 55.173-15.232-22.354 3.88-52.599 7.627-57.86zM39.396 68.475c-3.546.006-6.415 2.873-6.415 6.41 0 3.54 2.875 6.41 6.426 6.41 3.545-.007 6.417-2.873 6.417-6.41 0-3.54-2.876-6.41-6.428-6.41zm26.305-.077c-3.544.007-6.415 2.873-6.415 6.41 0 3.54 2.877 6.41 6.427 6.41 3.545-.006 6.416-2.874 6.416-6.41 0-3.541-2.878-6.41-6.428-6.41zm-13.14 4.318c-3.545.005-6.414 2.873-6.414 6.409 0 3.54 2.875 6.41 6.425 6.41 3.546-.006 6.418-2.873 6.418-6.41 0-3.54-2.877-6.41-6.429-6.41zm8.604-7.39C44.492 54.648 29.586 38.49 25.685 22.721l-5.048 1.971c7.036 13.73 16.145 30.657 40.528 40.634z" fill="#fff"/><path d="M0 107.562h1.864l4.37 6.7v-6.7h1.944v10.182H6.307l-4.363-6.679v6.679H0v-10.182zm16.753-.257c1.444 0 2.686.521 3.726 1.565 1.04 1.042 1.56 2.314 1.56 3.814 0 1.487-.514 2.744-1.54 3.772-1.026 1.029-2.27 1.544-3.734 1.544-1.532 0-2.806-.528-3.82-1.585-1.014-1.056-1.52-2.312-1.52-3.766 0-.973.235-1.869.708-2.685a5.237 5.237 0 011.948-1.942 5.244 5.244 0 012.672-.717zm-.022 1.897c-.945 0-1.74.328-2.384.983-.644.655-.966 1.489-.966 2.499 0 1.126.406 2.017 1.217 2.672a3.34 3.34 0 002.167.768c.923 0 1.707-.332 2.357-.996.647-.666.972-1.484.972-2.457 0-.97-.326-1.791-.979-2.462a3.205 3.205 0 00-2.384-1.007zm8.693-1.64h2.06c1.127 0 1.93.099 2.408.301.48.201.864.534 1.155 1 .292.466.437 1.018.437 1.654 0 .67-.161 1.229-.482 1.678-.322.451-.807.791-1.455 1.022l2.419 4.527h-2.124l-2.297-4.313h-.177v4.313h-1.944v-10.182zm1.944 3.98h.608c.619 0 1.044-.081 1.278-.243.232-.162.348-.431.348-.806a.962.962 0 00-.636-.935c-.194-.071-.55-.106-1.064-.106h-.534v2.09zm7.932-3.981h2.483c1.483 0 2.586.184 3.31.551.723.367 1.317.964 1.787 1.79.469.825.701 1.79.701 2.892 0 .786-.13 1.506-.392 2.164a4.489 4.489 0 01-1.085 1.637c-.461.433-.96.734-1.498.9-.538.166-1.47.249-2.795.249H35.3v-4.527h-1.166v-1.128H35.3v-4.528zm1.93 1.87v2.658h2.104v1.128H37.23v2.638h1.074c.893 0 1.54-.103 1.943-.305.402-.204.73-.546.987-1.026.256-.48.383-1.071.383-1.774 0-1.081-.303-1.919-.914-2.516-.548-.536-1.428-.803-2.643-.803h-.83zm9.634-1.869h1.95v6.584c0 .567.051.968.15 1.205.1.234.263.422.493.563.229.14.505.21.829.21.342 0 .637-.078.885-.235.248-.156.419-.356.515-.598.094-.242.14-.703.14-1.386v-6.343h1.951v6.071c0 1.024-.058 1.735-.173 2.132-.115.397-.337.779-.663 1.149a3.066 3.066 0 01-1.128.82c-.425.178-.92.265-1.485.265-.741 0-1.386-.168-1.934-.507-.547-.339-.94-.764-1.176-1.273-.236-.511-.354-1.372-.354-2.586v-6.071zm10.723 0h2.06c1.127 0 1.931.099 2.41.301.478.201.863.534 1.154 1 .291.466.436 1.018.436 1.654 0 .67-.16 1.229-.482 1.678-.322.451-.806.791-1.454 1.022l2.418 4.527h-2.124l-2.295-4.313h-.179v4.313h-1.944v-10.182zm1.944 3.98h.61c.617 0 1.043-.081 1.276-.243.232-.162.348-.431.348-.806a.988.988 0 00-.172-.58.975.975 0 00-.463-.355c-.195-.071-.55-.106-1.065-.106h-.534v2.09zm7.584-3.981h1.945v2.154c1.184 0 2.022.101 2.515.301.494.201.886.532 1.174.991.288.46.433 1.012.433 1.659 0 .717-.185 1.31-.558 1.778-.373.469-.878.797-1.516.98-.376.111-1.059.166-2.049.166v2.154h-1.944v-10.183zm1.945 6.14h.617c.486 0 .823-.035 1.014-.103a.885.885 0 00.447-.348c.11-.162.164-.357.164-.584 0-.389-.153-.675-.46-.86-.221-.135-.632-.203-1.234-.203h-.549v2.098zm9.238-6.139h-1.93v10.183h1.93v-10.183zm3.615 0h1.864l4.37 6.7v-6.7h1.944v10.182H88.22l-4.363-6.679v6.679h-1.944v-10.182zm21.357 1.661l-1.369 1.35c-.865-.914-1.875-1.37-3.029-1.37-1.004 0-1.847.332-2.525.996a3.265 3.265 0 00-1.018 2.424 3.35 3.35 0 001.056 2.497c.706.685 1.573 1.025 2.606 1.025.672 0 1.238-.14 1.7-.423.461-.28.832-.721 1.115-1.321h-2.958v-1.82h5.137l.015.429c0 .89-.233 1.735-.695 2.533-.463.798-1.063 1.408-1.798 1.828-.737.42-1.599.629-2.589.629-1.06 0-2.005-.229-2.836-.688a5.062 5.062 0 01-1.971-1.962 5.466 5.466 0 01-.726-2.749c0-1.348.447-2.519 1.34-3.517 1.06-1.184 2.439-1.778 4.138-1.778.888 0 1.719.164 2.491.491.653.277 1.292.752 1.916 1.426z" fill="#131747"/></g><defs><clipPath id="clip0_576_5652"><path fill="#fff" d="M0 0h104v118H0z"/></clipPath></defs></svg>